<svg id="Layer_1" data-name="Layer 1" xmlns="http://www.w3.org/2000/svg" viewBox="0 0 474.83 73.42"><defs><style>.cls-1{fill:#a38e6e;}</style></defs><title>Ourivesweb_Colorido</title><path class="cls-1" d="M44.9,26.43a23.46,23.46,0,0,0-8.12-5.59,27.93,27.93,0,0,0-10.94-2,27.93,27.93,0,0,0-10.94,2,23.37,23.37,0,0,0-8.12,5.59A24.07,24.07,0,0,0,1.73,35,32.56,32.56,0,0,0,0,45.74,32.9,32.9,0,0,0,1.73,56.63a24,24,0,0,0,5.05,8.51,23.37,23.37,0,0,0,8.12,5.59,27.93,27.93,0,0,0,10.94,2V63.85a12.86,12.86,0,0,1-6.53-1.58,13.79,13.79,0,0,1-4.56-4.16,18,18,0,0,1-2.62-5.79,25.92,25.92,0,0,1-.84-6.58,26.19,26.19,0,0,1,.84-6.54,17.39,17.39,0,0,1,2.62-5.79,14.09,14.09,0,0,1,4.56-4.11,13,13,0,0,1,6.53-1.58,13,13,0,0,1,6.53,1.58,14.09,14.09,0,0,1,4.56,4.11,17.39,17.39,0,0,1,2.62,5.79,26.19,26.19,0,0,1,.84,6.54v0H51.68v0A32.3,32.3,0,0,0,49.94,35,23.91,23.91,0,0,0,44.9,26.43Z"/><path class="cls-1" d="M89.79,49.2a22.84,22.84,0,0,1-.64,5.55A11.23,11.23,0,0,1,87,59.15a10.48,10.48,0,0,1-3.86,2.92,14.23,14.23,0,0,1-5.94,1.09A9.38,9.38,0,0,1,70,60.39q-2.58-2.78-2.57-9.51V19.5H56.13V52q0,10.11,4.51,15.1t14.6,5a16.79,16.79,0,0,0,8.36-2.33,15.47,15.47,0,0,0,6.19-6.18H90v7.12h11.09V19.5H89.79Z"/><path class="cls-1" d="M133.75,18.12a13.48,13.48,0,0,0-5.05,1,17.45,17.45,0,0,0-4.51,2.62,18.69,18.69,0,0,0-3.46,3.61,11.42,11.42,0,0,0-1.93,4.06h-.2V19.5H108V70.68h11.28V46.33a23.6,23.6,0,0,1,1.09-7.52,16.7,16.7,0,0,1,3-5.5A12.36,12.36,0,0,1,127.76,30a12.94,12.94,0,0,1,5.39-1.14,20.31,20.31,0,0,1,2.43.15c.82.09,1.63.21,2.42.34V18.41l-1.53-.2A26.93,26.93,0,0,0,133.75,18.12Z"/><rect class="cls-1" x="139.02" y="19.5" width="11.29" height="51.18"/><rect class="cls-1" x="139.02" width="11.29" height="10.69"/><polygon class="cls-1" points="190.5 19.5 178.03 58.8 177.83 58.8 164.86 19.5 152.59 19.5 171.2 70.69 183.87 70.69 202.19 19.5 190.5 19.5"/><path class="cls-1" d="M245.15,27.32a23.76,23.76,0,0,0-8-6.68,23,23,0,0,0-10.84-2.52,23.54,23.54,0,0,0-10.29,2.17,23.78,23.78,0,0,0-7.78,5.9,26.57,26.57,0,0,0-5,8.61,30.87,30.87,0,0,0-1.73,10.34A34.56,34.56,0,0,0,203.23,56a23.38,23.38,0,0,0,4.85,8.52A22.05,22.05,0,0,0,216,70.09a27.07,27.07,0,0,0,10.69,2,27.67,27.67,0,0,0,8-1.14,22.83,22.83,0,0,0,6.88-3.36,21.67,21.67,0,0,0,5.25-5.5,21.24,21.24,0,0,0,3.06-7.42H239.11a12.57,12.57,0,0,1-4.5,6.38,13.57,13.57,0,0,1-8,2.13,14,14,0,0,1-6.14-1.24,12.21,12.21,0,0,1-4.26-3.31,14.26,14.26,0,0,1-2.52-4.85,19.75,19.75,0,0,1-.84-5.75H250.5a29.23,29.23,0,0,0-.75-11.13A27,27,0,0,0,245.15,27.32ZM212.88,40.59A14.79,14.79,0,0,1,214,35.24a14,14,0,0,1,2.77-4.3A12.24,12.24,0,0,1,221,28.07a13.39,13.39,0,0,1,5.39-1,11.81,11.81,0,0,1,5.2,1.13,12.8,12.8,0,0,1,4,3,13.87,13.87,0,0,1,2.57,4.31,18.06,18.06,0,0,1,1.14,5.15Z"/><path class="cls-1" d="M295.59,49.1a13,13,0,0,0-3.78-4.25,19.33,19.33,0,0,0-5.31-2.68,62.39,62.39,0,0,0-6.06-1.68c-2.11-.46-4.17-.89-6.15-1.29A36.14,36.14,0,0,1,269,37.77a11.35,11.35,0,0,1-3.78-2.13,4.31,4.31,0,0,1-1.44-3.37,3.78,3.78,0,0,1,1-2.72A6.44,6.44,0,0,1,267.18,28a13,13,0,0,1,3.07-.75,24.17,24.17,0,0,1,2.82-.19,15.46,15.46,0,0,1,6.68,1.38c1.95.93,3.18,2.74,3.71,5.45h11.78a16.91,16.91,0,0,0-2.42-7.28,16.08,16.08,0,0,0-4.85-4.9A20.7,20.7,0,0,0,281.43,19a33.33,33.33,0,0,0-7.57-.84,40.91,40.91,0,0,0-7.28.69,22.26,22.26,0,0,0-6.93,2.43,15.53,15.53,0,0,0-5.14,4.55,11.6,11.6,0,0,0-2,7,13.8,13.8,0,0,0,1.38,6.48,12.33,12.33,0,0,0,3.72,4.31,19.75,19.75,0,0,0,5.24,2.67,59,59,0,0,0,6.09,1.69q3.07.69,6,1.28a38,38,0,0,1,5.3,1.44,10.87,10.87,0,0,1,3.81,2.23,5,5,0,0,1,1.58,3.56,4.84,4.84,0,0,1-1,3.51,7.15,7.15,0,0,1-2.92,2,15.63,15.63,0,0,1-3.81.94,29.23,29.23,0,0,1-3.61.25,14.77,14.77,0,0,1-7.82-2q-3.27-2-3.77-6.93H251.39a17.6,17.6,0,0,0,1.83,7.87A16.13,16.13,0,0,0,258,67.67,20.79,20.79,0,0,0,265.13,71a34.86,34.86,0,0,0,9,1.09,37.7,37.7,0,0,0,8-.89,24.53,24.53,0,0,0,7.4-2.87,16.53,16.53,0,0,0,5.4-5.15A13.72,13.72,0,0,0,297,55.44,12.84,12.84,0,0,0,295.59,49.1Z"/><polygon class="cls-1" points="359.99 20.85 349.6 59.06 349.4 59.06 340.19 20.85 328.81 20.85 319.2 59.06 319 59.06 309.01 20.85 297.03 20.85 312.87 72.03 324.75 72.03 334.15 34.02 334.35 34.02 343.85 72.03 355.44 72.03 371.47 20.85 359.99 20.85"/><path class="cls-1" d="M473.34,36.09a25.49,25.49,0,0,0-4.45-8.66,20.81,20.81,0,0,0-7.48-5.84,24.39,24.39,0,0,0-10.54-2.13,18.6,18.6,0,0,0-4.4.55,19.28,19.28,0,0,0-4.26,1.58,17.88,17.88,0,0,0-3.71,2.53,15.31,15.31,0,0,0-2.87,3.36h-.2V1.35H424.14V72h10.69V65h.2a12.48,12.48,0,0,0,3.22,4.15,17,17,0,0,0,4.31,2.58,19.51,19.51,0,0,0,5,1.33,39.58,39.58,0,0,0,5.19.35,20.4,20.4,0,0,0,9.8-2.23,20.06,20.06,0,0,0,6.88-5.94,25.87,25.87,0,0,0,4.06-8.56,37.51,37.51,0,0,0,1.34-10A36.8,36.8,0,0,0,473.34,36.09Zm-10.54,17a16.71,16.71,0,0,1-2.47,5.75,14,14,0,0,1-4.41,4.11,12.66,12.66,0,0,1-6.53,1.58,12.79,12.79,0,0,1-6.09-1.39,14,14,0,0,1-4.51-3.76A16.23,16.23,0,0,1,436,53.67a26.14,26.14,0,0,1-.94-7.18c0-5.48,1.21-9.86,3.62-13.17s6-4.95,10.74-4.95a12.1,12.1,0,0,1,6.13,1.54A13.65,13.65,0,0,1,460,34a18.1,18.1,0,0,1,2.67,5.79,25.22,25.22,0,0,1,.89,6.73A28.8,28.8,0,0,1,462.8,53.07Z"/><path class="cls-1" d="M404.29,62.38a10.88,10.88,0,0,1-2.86,1.4V73a27,27,0,0,0,2.86-.67,22.71,22.71,0,0,0,6.88-3.36A21.26,21.26,0,0,0,419.49,56H408.8A12.63,12.63,0,0,1,404.29,62.38Z"/><path class="cls-1" d="M414.83,28.67a23.73,23.73,0,0,0-8-6.68A23,23,0,0,0,396,19.46,23.23,23.23,0,0,0,378,27.53,26.41,26.41,0,0,0,373,36.14a30.72,30.72,0,0,0-1.73,10.35,34.56,34.56,0,0,0,1.63,10.89,23.67,23.67,0,0,0,4.85,8.52,22.23,22.23,0,0,0,7.87,5.54,23.21,23.21,0,0,0,4.62,1.4V63.3l-.07,0A12.17,12.17,0,0,1,385.93,60a14.24,14.24,0,0,1-2.53-4.86,19.64,19.64,0,0,1-.84-5.74h37.62a29.28,29.28,0,0,0-.74-11.14A27,27,0,0,0,414.83,28.67ZM382.56,41.94a15.17,15.17,0,0,1,1.14-5.35,14.36,14.36,0,0,1,2.77-4.31,12.48,12.48,0,0,1,4.16-2.87,13.65,13.65,0,0,1,5.4-1,11.63,11.63,0,0,1,5.19,1.14,12.8,12.8,0,0,1,4,3,13.77,13.77,0,0,1,2.58,4.31,18.68,18.68,0,0,1,1.14,5.15Z"/></svg>